<?xml version="1.0" encoding="UTF-8"?>
<svg version="1.1" xmlns="http://www.w3.org/2000/svg" width="1024" height="1024">
<path d="M0 0 C337.92 0 675.84 0 1024 0 C1024 337.92 1024 675.84 1024 1024 C686.08 1024 348.16 1024 0 1024 C0 686.08 0 348.16 0 0 Z " fill="#001A2C" transform="translate(0,0)"/>
<path d="M0 0 C5.35256174 0.0883261 10.34966684 1.70370027 15.45703125 3.18359375 C16.55370117 3.4978833 17.65037109 3.81217285 18.78027344 4.13598633 C59.0433231 15.88080846 98.2060086 32.57186589 134.14453125 54.24609375 C135.03640137 54.78121582 135.92827148 55.31633789 136.84716797 55.86767578 C152.96676331 65.57590653 167.96867318 76.06500358 182.53564453 87.96264648 C184.15467348 89.32502178 184.15467348 89.32502178 186.21502304 90.40751362 C188.14453125 92.24609375 188.14453125 92.24609375 188.63672256 95.22333813 C188.63119181 97.0664632 188.63119181 97.0664632 188.62554932 98.94682312 C188.62896702 99.63133964 188.63238472 100.31585616 188.63590598 101.0211156 C188.64250676 103.32008272 188.62047445 105.61788812 188.59863281 107.91674805 C188.5975048 109.56248955 188.59813729 111.20823306 188.60040283 112.85397339 C188.60155272 117.32696913 188.57799913 121.79953772 188.550107 126.272434 C188.52513903 130.94493186 188.52275499 135.61743901 188.51800537 140.28999329 C188.50556203 149.14043828 188.47272208 157.99068615 188.43260741 166.84104425 C188.38793192 176.91586408 188.3659133 186.99069321 188.34582567 197.0655874 C188.30399061 217.79253297 188.2336122 238.51930095 188.14453125 259.24609375 C185.05793633 258.03854656 182.29165924 256.8409368 179.53515625 254.99609375 C178.87241699 254.55789307 178.20967773 254.11969238 177.52685547 253.66821289 C176.47135498 252.96426392 176.47135498 252.96426392 175.39453125 252.24609375 C135.19084201 225.90649145 91.40720877 207.7965135 44.68920898 196.74365234 C43.48852783 196.45441895 42.28784668 196.16518555 41.05078125 195.8671875 C40.00212891 195.62411865 38.95347656 195.3810498 37.87304688 195.13061523 C34.95053789 194.1832056 33.280548 193.45694773 31.14453125 191.24609375 C30.15551758 188.37036133 30.15551758 188.37036133 29.4765625 184.890625 C29.22326172 183.62798828 28.96996094 182.36535156 28.70898438 181.06445312 C28.45820407 179.72919094 28.20755399 178.39390429 27.95703125 177.05859375 C27.696091 175.74255429 27.43373484 174.42679473 27.16992188 173.11132812 C25.9373042 166.83994778 24.81496572 160.60310493 24.14453125 154.24609375 C25.75521484 153.80910156 25.75521484 153.80910156 27.3984375 153.36328125 C39.54731954 150.11183008 39.54731954 150.11183008 48.29296875 141.4296875 C50.34297477 136.17302069 49.95962344 129.28382422 47.89453125 124.12109375 C46.8214185 120.00749488 48.49206228 117.62263397 50.171875 113.8359375 C52.1482301 108.57359441 51.84672148 104.05172576 49.83203125 98.87109375 C48.33169261 96.26143596 48.33169261 96.26143596 46.39453125 94.74609375 C45.14453125 93.24609375 45.14453125 93.24609375 45.39453125 90.30859375 C45.79981171 88.65369855 46.21323599 87.00028347 46.671875 85.359375 C47.87540146 79.97831866 47.95993835 74.90826976 45.51953125 69.93359375 C38.96398497 62.51547559 32.60626788 59.37696752 22.671875 58.734375 C20.80905968 58.66247686 18.94568085 58.60398535 17.08203125 58.55859375 C16.12103516 58.52443359 15.16003906 58.49027344 14.16992188 58.45507812 C11.82824198 58.37352708 9.48689262 58.30408409 7.14453125 58.24609375 C5.73793945 51.92912156 4.33218238 45.61196403 2.92700195 39.29467773 C2.44900361 37.14619756 1.9708151 34.99775969 1.49243164 32.84936523 C0.80434822 29.75906329 0.11695169 26.66860923 -0.5703125 23.578125 C-0.78388901 22.61961136 -0.99746552 21.66109772 -1.21751404 20.67353821 C-1.41764603 19.77298203 -1.61777802 18.87242584 -1.82397461 17.94458008 C-1.99940292 17.15626297 -2.17483124 16.36794586 -2.35557556 15.55574036 C-2.52054031 14.79355698 -2.68550507 14.0313736 -2.85546875 13.24609375 C-3.03916519 12.40153122 -3.22286163 11.55696869 -3.41212463 10.68681335 C-3.99042838 7.5031074 -3.97959859 4.47346952 -3.85546875 1.24609375 C-2.85546875 0.24609375 -2.85546875 0.24609375 0 0 Z " fill="#CE960F" transform="translate(317.85546875,459.75390625)"/>
<path d="M0 0 C0.99 0.99 0.99 0.99 2 2 C1.6328105 13.43987112 -1.94550058 25.09532996 -4.5625 36.1875 C-4.97902812 37.97709434 -5.39504694 39.76680729 -5.81054688 41.55664062 C-6.20787412 43.26052382 -6.60564384 44.9643039 -7.00390625 46.66796875 C-7.18933487 47.46164352 -7.37476349 48.2553183 -7.56581116 49.07304382 C-8.27936789 52.09480254 -9.01756842 55.05270527 -10 58 C-11.83111328 58.03867187 -11.83111328 58.03867187 -13.69921875 58.078125 C-25.0484872 58.42820424 -35.88872139 59.22212651 -46 65 C-47.20003343 66.81601365 -47.20003343 66.81601365 -48 69 C-48.556875 70.051875 -48.556875 70.051875 -49.125 71.125 C-50.92764729 77.04798395 -50.40468616 82.91275589 -48.75 88.8125 C-48.18359375 91.03125 -48.18359375 91.03125 -48 93 C-49.8125 95.8125 -49.8125 95.8125 -52 98 C-53.90656488 102.6075318 -53.70370452 107.95341828 -52.10546875 112.6015625 C-51.390566 114.31429772 -50.64866 116.01611639 -49.875 117.703125 C-49 120 -49 120 -49 124 C-49.33 124.721875 -49.66 125.44375 -50 126.1875 C-51.94359521 131.65386152 -51.67581358 136.33862494 -49.5 141.6875 C-44.40699129 149.35363157 -36.46699192 152.35406502 -28 155 C-28.28589535 163.50538673 -29.31126573 171.75757139 -30.8125 180.125 C-30.96557617 181.03725342 -31.11865234 181.94950684 -31.27636719 182.8894043 C-31.43911133 183.753479 -31.60185547 184.61755371 -31.76953125 185.5078125 C-31.90979736 186.27754395 -32.05006348 187.04727539 -32.19458008 187.84033203 C-33.27335212 190.73297147 -34.58856872 192.07835458 -37 194 C-39.72851562 194.99804688 -39.72851562 194.99804688 -42.90625 195.71875 C-44.10677002 196.00468018 -45.30729004 196.29061035 -46.54418945 196.58520508 C-47.50791977 196.80703964 -47.50791977 196.80703964 -48.49111938 197.03335571 C-76.50180117 203.53997663 -103.88778699 212.96874469 -130 225 C-131.31943604 225.60593994 -131.31943604 225.60593994 -132.66552734 226.22412109 C-150.55215014 234.54941954 -167.65559847 244.77223109 -183.57421875 256.42578125 C-185.85209565 257.90401698 -187.39862624 258.43478275 -190 259 C-190.30409586 237.41633353 -190.53312613 215.83302173 -190.67355824 194.24764538 C-190.74050632 184.22434436 -190.83172387 174.20237663 -190.98071289 164.17993164 C-191.11055798 155.44110413 -191.1942189 146.70324234 -191.22315043 137.96347696 C-191.24005628 133.33801786 -191.27958377 128.71532058 -191.37449074 124.09074974 C-191.46324075 119.73055508 -191.48985737 115.3742377 -191.47039986 111.01322556 C-191.47395471 109.4195866 -191.49953352 107.82580806 -191.54967117 106.23295403 C-191.89891206 94.55761569 -191.89891206 94.55761569 -188.72588706 90.28391671 C-185.21322551 86.61790577 -181.20422791 83.81628109 -177 81 C-175.49110542 79.84448293 -173.98756186 78.68183046 -172.49609375 77.50390625 C-171.14911229 76.51537071 -169.79619238 75.53487676 -168.4375 74.5625 C-167.68267334 74.02157715 -166.92784668 73.4806543 -166.15014648 72.92333984 C-157.40917538 66.7548271 -148.27963495 61.31155941 -139 56 C-137.98260742 55.41460449 -136.96521484 54.82920898 -135.91699219 54.22607422 C-119.3012023 44.70520155 -102.40831472 35.97881091 -85 28 C-83.80503906 27.45069824 -82.61007812 26.90139648 -81.37890625 26.33544922 C-62.97032663 17.91714765 -44.35427116 10.94763115 -25 5 C-24.02885254 4.70061523 -23.05770508 4.40123047 -22.05712891 4.09277344 C-19.56396589 3.3344759 -17.06652705 2.59651736 -14.5625 1.875 C-13.87768555 1.67455078 -13.19287109 1.47410156 -12.48730469 1.26757812 C-8.24524343 0.10731938 -4.38964438 -0.33724653 0 0 Z " fill="#CE950F" transform="translate(710,460)"/>
<path d="M0 0 C24.48404645 20.09832868 42.75924339 49.37932608 45.98779297 81.44091797 C46.36240568 86.05252957 46.56661085 90.64685249 46.76953125 95.2734375 C39.83953125 97.2534375 32.90953125 99.2334375 25.76953125 101.2734375 C24.96515625 99.4996875 24.16078125 97.7259375 23.33203125 95.8984375 C17.64155204 84.59743897 9.73769043 77.11313825 -1.8671875 72.14453125 C-12.68750839 69.34205557 -26.78268681 69.59642356 -36.765625 74.73828125 C-37.57902344 75.24488281 -38.39242187 75.75148438 -39.23046875 76.2734375 C-40.03355469 76.76972656 -40.83664062 77.26601563 -41.6640625 77.77734375 C-49.72029172 83.41534565 -55.03366219 91.50648883 -59.23046875 100.2734375 C-59.86210938 100.056875 -60.49375 99.8403125 -61.14453125 99.6171875 C-72.20816804 96.17375011 -83.05176266 96.38861012 -94.23046875 99.2734375 C-94.60558594 98.47679687 -94.98070312 97.68015625 -95.3671875 96.859375 C-101.35720169 84.4568771 -108.77612183 76.5732151 -121.97045898 71.85571289 C-126.31100907 70.73740113 -130.64798781 70.80221515 -135.10546875 70.8359375 C-136.03488281 70.81595703 -136.96429688 70.79597656 -137.921875 70.77539062 C-149.19243714 70.78325015 -158.87369382 75.46376205 -167.13671875 83.015625 C-172.23343337 88.40294177 -175.11501842 94.58661728 -178.23046875 101.2734375 C-188.62546875 98.3034375 -188.62546875 98.3034375 -199.23046875 95.2734375 C-198.31019786 64.90449821 -186.96755691 38.81947414 -168.23046875 15.2734375 C-167.69679688 14.59667969 -167.163125 13.91992188 -166.61328125 13.22265625 C-127.09815436 -34.9430795 -47.20258983 -37.02907314 0 0 Z " fill="#CE960F" transform="translate(589.23046875,202.7265625)"/>
<path d="M0 0 C0.09796875 0.89460938 0.1959375 1.78921875 0.296875 2.7109375 C2.05783163 16.95039713 6.05141715 27.52439539 17.375 36.8125 C27.76664605 44.46856743 38.38281069 46.08595415 51 45 C62.56534515 42.81903513 72.60634862 37.24669684 80 28 C82.94583094 23.57715077 84.88498003 19.23991841 85.66796875 13.9765625 C87.3633189 3.23893595 87.3633189 3.23893595 90.59130859 0.79541016 C95.69633639 -1.72345727 101.31640339 -3 107 -3 C106.32235889 26.07696387 86.67985877 50.40512478 70.56884766 73.0078125 C56.93464299 92.19987908 45.97703483 111.20432032 40.64697266 134.30053711 C40.36539307 135.51882202 40.36539307 135.51882202 40.078125 136.76171875 C39.91731445 137.48319092 39.75650391 138.20466309 39.59082031 138.94799805 C38.95434246 141.15857505 38.16652816 143.01727912 37 145 C34.28598706 146.35700647 32.15153684 146.1123861 29.1171875 146.09765625 C27.95058594 146.09443359 26.78398438 146.09121094 25.58203125 146.08789062 C24.35871094 146.07951172 23.13539063 146.07113281 21.875 146.0625 C20.64394531 146.05798828 19.41289063 146.05347656 18.14453125 146.04882812 C15.09630608 146.0370133 12.04817686 146.02054028 9 146 C9.4162313 120.60989089 14.77293487 85.5275189 30.71875 64.76171875 C32.77435746 61.9352585 32.31178884 59.36731944 32 56 C31.34 55.34 30.68 54.68 30 54 C26.54140686 53.90699847 26.54140686 53.90699847 23 55 C14.83262674 63.49347527 10.89330046 77.13411266 7 88 C6.75121094 88.69013184 6.50242187 89.38026367 6.24609375 90.09130859 C0.01993279 107.86699814 -2.68478003 127.28670722 -4 146 C-10.93 146 -17.86 146 -25 146 C-25.21914063 144.040625 -25.43828125 142.08125 -25.6640625 140.0625 C-29.04371277 111.16576025 -33.81808341 78.65637404 -52.5 55.109375 C-54.18606358 53.6069854 -54.18606358 53.6069854 -57.6875 54.3125 C-58.780625 54.539375 -59.87375 54.76625 -61 55 C-61.92941305 59.02072168 -62.33490064 61.26693971 -60.59375 65.078125 C-59.9028125 66.12484375 -59.211875 67.1715625 -58.5 68.25 C-47.16382244 86.55614183 -42.45727066 108.97605678 -39 130 C-38.80921875 131.11890625 -38.6184375 132.2378125 -38.421875 133.390625 C-37.92759834 137.61943646 -37.91324737 141.74912094 -38 146 C-42.43728151 146.11586755 -46.87417591 146.18714058 -51.3125 146.25 C-52.57513672 146.28351563 -53.83777344 146.31703125 -55.13867188 146.3515625 C-56.34716797 146.36445313 -57.55566406 146.37734375 -58.80078125 146.390625 C-59.91622314 146.41157227 -61.03166504 146.43251953 -62.1809082 146.45410156 C-65 146 -65 146 -66.79541016 144.2956543 C-68.09473473 141.81945872 -68.8211253 139.59815838 -69.47265625 136.87890625 C-69.72692383 135.87150391 -69.98119141 134.86410156 -70.24316406 133.82617188 C-70.51354492 132.74916016 -70.78392578 131.67214844 -71.0625 130.5625 C-77.41234473 106.77294086 -89.71165937 87.49124531 -104.07983398 67.81323242 C-137.66130401 21.7254221 -137.66130401 21.7254221 -137 -3 C-134.56669045 -2.57616534 -132.15508523 -2.11177509 -129.7421875 -1.58203125 C-127.08698825 -0.96787183 -127.08698825 -0.96787183 -124.6953125 -0.76171875 C-122.08626499 -0.27436837 -120.92492417 0.13340687 -119 2 C-117.61210216 5.95258932 -116.75578016 9.8810959 -115.9140625 13.9765625 C-113.99658387 23.08353243 -108.13710891 31.34363585 -100.57421875 36.7265625 C-88.32997162 44.27005921 -75.86322034 47.16275718 -61.56640625 44.31640625 C-50.35537095 40.874547 -41.35595646 33.57126026 -35.75 23.1875 C-32.38860828 15.84437389 -30.75478458 8.00071655 -30 0 C-18.84688155 -4.34782584 -11.17757497 -4.67425862 0 0 Z " fill="#CF980F" transform="translate(528,315)"/>
<path d="M0 0 C5.9272969 4.12431685 10.25511232 9.23237685 13.1171875 15.8671875 C14.90963537 26.80111952 14.3809735 36.81770452 8.046875 46.1875 C2.75549138 52.67854954 -3.96571662 57.06288888 -12.2578125 58.6796875 C-21.34413721 59.56509614 -28.47389221 58.11375894 -35.9296875 52.76171875 C-42.72774856 47.07990736 -47.54934212 40.50678448 -49.2578125 31.6796875 C-50.20615866 21.07686654 -48.39845433 13.12637701 -41.5703125 4.8671875 C-29.97107507 -7.38247446 -14.34452803 -8.38832262 0 0 Z " fill="#D09A0E" transform="translate(471.2578125,290.3203125)"/>
<path d="M0 0 C7.47307252 5.21019822 11.88636183 11.70267877 13.77734375 20.64453125 C14.79973152 29.41185652 13.13143268 37.72923098 7.96484375 44.95703125 C1.96523983 52.28332891 -5.8681438 57.85746939 -15.44921875 58.8828125 C-25.67057863 59.19910865 -33.65486595 55.36754495 -41.22265625 48.64453125 C-47.87180336 41.81068561 -49.91288759 34.09473624 -49.82885742 24.73901367 C-49.37926946 15.5852311 -45.52834631 8.47898133 -38.97265625 2.14453125 C-26.90790836 -7.52338024 -13.10389497 -7.99130326 0 0 Z " fill="#CF9A0E" transform="translate(590.22265625,290.35546875)"/>
<path d="M0 0 C1.24669968 -0.0049926 1.24669968 -0.0049926 2.51858521 -0.01008606 C4.2788233 -0.01515341 6.03907102 -0.01749444 7.79931641 -0.01733398 C10.49007055 -0.01951686 13.18041238 -0.0376644 15.87109375 -0.05664062 C17.58072776 -0.05957532 19.29036373 -0.06155961 21 -0.0625 C22.20642654 -0.07327827 22.20642654 -0.07327827 23.43722534 -0.08427429 C30.50068702 -0.05545366 30.50068702 -0.05545366 33.6328125 2.16796875 C35.50335788 4.66202926 35.6413071 5.96834557 35.5078125 9.10546875 C34.47635045 12.71558592 33.32239905 14.55107373 30.6328125 17.16796875 C25.50746068 19.44244099 20.9231404 19.34567606 15.4453125 19.16796875 C13.84792936 19.11689335 12.25022529 19.07484669 10.65234375 19.04296875 C9.95214111 19.01976562 9.25193848 18.9965625 8.53051758 18.97265625 C6.29959938 19.05312156 6.29959938 19.05312156 3.6328125 21.16796875 C3.3825968 24.25162746 3.3825968 24.25162746 3.6328125 27.16796875 C4.95671997 27.1819873 4.95671997 27.1819873 6.30737305 27.19628906 C9.59737922 27.24042989 12.88610324 27.30209551 16.17553711 27.37548828 C17.59631442 27.40362889 19.01724628 27.42487783 20.43823242 27.43896484 C22.48696609 27.46049269 24.5338555 27.50718389 26.58203125 27.55859375 C28.42800903 27.59001465 28.42800903 27.59001465 30.3112793 27.62207031 C34.21233594 28.2632142 35.90920192 29.33736938 38.6328125 32.16796875 C39.33271407 36.445145 39.13623748 38.39605045 36.7578125 42.04296875 C33.94426353 44.85651772 32.42178679 45.28958975 28.5703125 45.44921875 C27.77367187 45.48660156 26.97703125 45.52398438 26.15625 45.5625 C24.47395833 45.6328125 22.79166667 45.703125 21.109375 45.7734375 C20.31273437 45.81082031 19.51609375 45.84820313 18.6953125 45.88671875 C17.59896484 45.9321582 17.59896484 45.9321582 16.48046875 45.97851562 C14.5389548 46.06754448 14.5389548 46.06754448 12.6328125 47.16796875 C12.6328125 49.47796875 12.6328125 51.78796875 12.6328125 54.16796875 C13.24801758 54.18778809 13.86322266 54.20760742 14.49707031 54.22802734 C17.29273792 54.32346602 20.0876776 54.4330683 22.8828125 54.54296875 C23.85089844 54.57390625 24.81898438 54.60484375 25.81640625 54.63671875 C27.21826172 54.69472656 27.21826172 54.69472656 28.6484375 54.75390625 C29.50727539 54.78532715 30.36611328 54.81674805 31.25097656 54.84912109 C33.7610153 55.18513079 35.45213578 55.90988603 37.6328125 57.16796875 C37.95387072 60.69960922 38.11494962 62.52511926 35.9453125 65.41796875 C29.92976326 69.97027628 22.96976022 70.32142996 15.6328125 70.41796875 C13.869375 70.45664062 13.869375 70.45664062 12.0703125 70.49609375 C4.89127738 69.81082222 0.97477979 66.02126994 -3.48046875 60.734375 C-12.73173232 48.1503581 -15.46396842 30.29443312 -15.7421875 15.04296875 C-15.77957031 14.25792969 -15.81695312 13.47289062 -15.85546875 12.6640625 C-15.92155977 8.30939887 -15.7916558 6.69751715 -12.96875 3.17578125 C-8.63287463 -0.17052497 -5.31128442 0.00731199 0 0 Z " fill="#D09B0E" transform="translate(317.3671875,531.83203125)"/>
<path d="M0 0 C0.82214493 -0.00241196 1.64428986 -0.00482391 2.49134827 -0.00730896 C4.22531978 -0.00633211 5.95932309 0.00702303 7.69311523 0.03198242 C10.33621101 0.06625783 12.97595404 0.05264375 15.61914062 0.03320312 C17.30860788 0.04010332 18.99806656 0.04977729 20.6875 0.0625 C21.47205063 0.05754013 22.25660126 0.05258026 23.06492615 0.04747009 C28.27979311 0.15844123 31.25033249 1.22123364 35.41015625 4.62890625 C40.63809485 11.76474198 37.37390865 25.6806995 36.1640625 33.828125 C33.92943469 45.0938911 30.20607559 58.85511222 21.34765625 66.69140625 C13.63340599 71.77952876 5.36714421 71.62303201 -3.5859375 70.12890625 C-7.62450369 69.07275818 -10.12178903 68.042536 -13.27734375 65.25390625 C-14.58984375 62.62890625 -14.58984375 62.62890625 -14.40234375 59.87890625 C-13.58984375 57.62890625 -13.58984375 57.62890625 -12.58984375 56.62890625 C-11.05503148 56.42621631 -9.51239243 56.28196059 -7.96875 56.1640625 C-7.03353516 56.08607422 -6.09832031 56.00808594 -5.13476562 55.92773438 C-3.15067063 55.77051401 -1.16629033 55.61685257 0.81835938 55.46679688 C1.75486328 55.38751953 2.69136719 55.30824219 3.65625 55.2265625 C4.51919678 55.15961182 5.38214355 55.09266113 6.27124023 55.02368164 C8.61739978 54.7996764 8.61739978 54.7996764 10.41015625 52.62890625 C10.12032356 49.32207159 10.12032356 49.32207159 8.41015625 46.62890625 C4.67224994 46.45865748 0.94066334 46.33165038 -2.80078125 46.28710938 C-7.98139976 46.10570335 -10.82204896 45.52131682 -14.58984375 41.62890625 C-16.50503079 39.01728756 -16.59867009 37.84515158 -16.46484375 34.56640625 C-15.41924464 31.05618065 -14.72673806 30.41521578 -11.58984375 28.62890625 C-8.48950195 28.21240234 -8.48950195 28.21240234 -4.890625 28.15234375 C-2.95413086 28.1059375 -2.95413086 28.1059375 -0.97851562 28.05859375 C0.38019783 28.03959764 1.73892234 28.02137777 3.09765625 28.00390625 C5.76843464 27.95594898 8.43879157 27.89868485 11.109375 27.83984375 C12.29362061 27.82228027 13.47786621 27.8047168 14.69799805 27.78662109 C17.32529012 27.93539391 17.32529012 27.93539391 18.41015625 26.62890625 C18.57682292 24.12890625 18.57682292 24.12890625 18.41015625 21.62890625 C17.40891659 20.40328407 17.40891659 20.40328407 15.40405273 20.53466797 C14.10576538 20.54651123 14.10576538 20.54651123 12.78125 20.55859375 C11.35135742 20.543125 11.35135742 20.543125 9.89257812 20.52734375 C7.89001804 20.51192956 5.88713446 20.51910238 3.88476562 20.55078125 C-2.77816027 20.4258235 -6.29022929 19.11887915 -11.11376953 14.48339844 C-13.49265685 11.4946409 -13.93887446 9.39843788 -13.58984375 5.62890625 C-9.57253221 0.21560244 -6.2854286 -0.10594481 0 0 Z " fill="#D09B0E" transform="translate(685.58984375,531.37109375)"/>
<path d="M0 0 C30.36 0 60.72 0 92 0 C88.61641992 10.15074024 88.61641992 10.15074024 86 12.9375 C85.505 13.48277344 85.01 14.02804687 84.5 14.58984375 C80.46470745 18.38343909 76.97129166 18.33727217 71.73046875 18.4140625 C70.90557449 18.43360992 70.08068024 18.45315735 69.23078918 18.47329712 C66.54979615 18.53397276 63.86880315 18.58027583 61.1875 18.625 C59.35481004 18.66074193 57.52212768 18.6968751 55.68945312 18.73339844 C52.08781131 18.80274181 48.4861503 18.86487903 44.88427734 18.92089844 C40.8351141 18.98395766 36.78687199 19.07082867 32.73828125 19.1640625 C30.825551 19.1946563 28.91279165 19.22352181 27 19.25 C25.76092896 19.282146 25.76092896 19.282146 24.49682617 19.31494141 C18.02469485 19.35188982 12.62129604 18.14696628 7.5390625 13.984375 C6.90742188 13.24703125 6.27578125 12.5096875 5.625 11.75 C4.97789062 11.02296875 4.33078125 10.2959375 3.6640625 9.546875 C2 7 2 7 0 0 Z " fill="#CE980F" transform="translate(467,475)"/>
<path d="M0 0 C1.875 1.625 1.875 1.625 3 4 C2.6875 7.25 2.6875 7.25 2 10 C-3.68697588 12.08829725 -9.38325225 14.14240022 -15.109375 16.12109375 C-45.48827086 26.67571579 -75.65833139 38.75319821 -103.34033203 55.24243164 C-104.16903809 55.73219482 -104.99774414 56.22195801 -105.8515625 56.7265625 C-106.94718506 57.38519287 -106.94718506 57.38519287 -108.06494141 58.05712891 C-110 59 -110 59 -113 59 C-98.69622178 43.89163425 -83.53712999 32.45523315 -65 23 C-64.25411621 22.6174707 -63.50823242 22.23494141 -62.73974609 21.84082031 C-46.60157004 13.6583779 -29.64036136 7.13163865 -12.3125 1.9375 C-11.63622559 1.73350586 -10.95995117 1.52951172 -10.26318359 1.31933594 C-6.7756766 0.32444188 -3.6282164 -0.37397529 0 0 Z " fill="#D2A00D" transform="translate(681,442)"/>
<path d="M0 0 C0.83015625 -0.00773438 1.6603125 -0.01546875 2.515625 -0.0234375 C5.23163394 0.46088577 6.11622197 1.18284214 7.75 3.375 C8.25 6.25 8.25 6.25 7.75 9.375 C4.06408709 13.79669401 0.24027449 15.78863956 -4.875 18.0625 C-18.22301795 24.42810383 -26.26676086 34.30225416 -34.25 46.375 C-34.86101562 47.29539063 -35.47203125 48.21578125 -36.1015625 49.1640625 C-37.07623703 50.63807768 -38.04295638 52.11743638 -38.99609375 53.60546875 C-40.29126639 55.43323575 -41.53872998 56.92700229 -43.25 58.375 C-46.79376481 58.90279476 -48.58802098 58.76539788 -51.6875 56.9375 C-53.71385691 53.61427467 -53.60758137 51.70570802 -52.9765625 47.92578125 C-47.52446353 28.78481015 -29.1043934 12.78210329 -12.25 3.375 C-8.04693037 1.35569916 -4.68290382 -0.04417834 0 0 Z " fill="#E6BD7B" transform="translate(476.25,200.625)"/>
<path d="M0 0 C7.20192136 0.27796889 13.77950462 2.64509878 20.5625 4.9375 C21.74908203 5.33718994 22.93566406 5.73687988 24.15820312 6.14868164 C52.60814989 15.92882551 91.44876661 30.67314991 109 57 C103.82637691 55.51025564 99.55746663 53.17635919 94.9375 50.5 C66.953032 34.69180458 35.96231588 21.38020343 4.9831543 12.68383789 C-1.0143224 10.93053535 -1.0143224 10.93053535 -3 8 C-2.77669287 4.35265021 -2.61627165 2.61627165 0 0 Z " fill="#D4A30C" transform="translate(345,442)"/>
<path d="M0 0 C19.47 0 38.94 0 59 0 C56.24202879 8.27391363 51.83845593 13.89003584 44.0625 18.0625 C35.64625431 21.44308404 24.4057042 21.81304067 15.9375 18.4375 C9.29069697 14.79206346 3.63597058 9.66594606 0 3 C0 2.01 0 1.02 0 0 Z " fill="#D19E0D" transform="translate(484,507)"/>
<path d="M0 0 C2.03667615 1.54506466 2.86073078 2.72146156 4 5 C4.123724 8.01549131 4.18845633 11.00694024 4.203125 14.0234375 C4.20882507 14.92115875 4.21452515 15.81888 4.22039795 16.74380493 C4.22985295 18.64527201 4.23638391 20.5467555 4.24023438 22.44824219 C4.24993797 25.35641088 4.28095556 28.26387232 4.3125 31.171875 C4.31903022 33.01822496 4.32428062 34.86457999 4.328125 36.7109375 C4.3404718 37.5808432 4.3528186 38.4507489 4.36553955 39.34701538 C4.35241251 42.90792474 4.33501588 45.34587961 2.69433594 48.54931641 C1 50 1 50 -2.4375 50.5 C-6 50 -6 50 -8.19384766 48.54492188 C-10.89279192 44.74202988 -10.53673712 41.33645123 -10.4609375 36.78125 C-10.46002106 35.88635864 -10.45910461 34.99146729 -10.4581604 34.06945801 C-10.45212597 32.1798776 -10.43638466 30.29030668 -10.41162109 28.40087891 C-10.37513108 25.51038317 -10.37060172 22.6211707 -10.37109375 19.73046875 C-10.36126149 17.8932181 -10.34960401 16.05597613 -10.3359375 14.21875 C-10.33371185 13.35511841 -10.33148621 12.49148682 -10.32919312 11.60168457 C-10.31643341 10.79404663 -10.30367371 9.98640869 -10.29052734 9.15429688 C-10.28290375 8.44688354 -10.27528015 7.73947021 -10.26742554 7.01062012 C-9.95211777 4.64000079 -9.248089 3.0329236 -8 1 C-5.20129973 -0.39935013 -3.09501208 -0.25265405 0 0 Z " fill="#D09F0D" transform="translate(515,98)"/>
<path d="M0 0 C2.91593681 2.23891044 5.26350772 4.93515235 7.6875 7.6875 C8.73272827 8.84258057 8.73272827 8.84258057 9.79907227 10.02099609 C11.2107016 11.58896805 12.61434401 13.1641687 14.00976562 14.74658203 C15.80328673 16.77727386 17.62251298 18.78016544 19.453125 20.77734375 C20.44994474 21.89141786 21.44487734 23.00718473 22.4375 24.125 C23.30246094 25.09695312 24.16742188 26.06890625 25.05859375 27.0703125 C27.32995381 30.49791823 27.85440776 32.91371123 28 37 C26.4375 39.5 26.4375 39.5 24 41 C18.79926832 40.77854027 16.57466563 39.16597405 13.0625 35.4375 C12.19753906 34.52742188 11.33257812 33.61734375 10.44140625 32.6796875 C7.87911892 29.86732093 5.33928034 27.04433752 2.8671875 24.15234375 C-0.3279821 20.46920892 -3.65599392 16.90482835 -6.9609375 13.3203125 C-9.34024997 10.612819 -9.93161008 9.64286526 -10.3125 6.0625 C-10 3 -10 3 -8.375 1.125 C-5.12549299 -0.41424016 -3.59338031 -0.59398197 0 0 Z " fill="#D09E0D" transform="translate(401,135)"/>
<path d="M0 0 C4.68757143 1.26827022 4.68757143 1.26827022 6.27734375 3.88671875 C6.5710486 6.72084009 6.6509263 8.3131842 5.07495117 10.73266602 C4.51654541 11.30041748 3.95813965 11.86816895 3.3828125 12.453125 C2.76196777 13.09797852 2.14112305 13.74283203 1.50146484 14.40722656 C0.82937988 15.08108398 0.15729492 15.75494141 -0.53515625 16.44921875 C-1.91479023 17.87169038 -3.29369026 19.29487421 -4.671875 20.71875 C-5.35813965 21.42080566 -6.0444043 22.12286133 -6.75146484 22.84619141 C-9.52118618 25.71333668 -12.1867554 28.6689176 -14.84765625 31.63671875 C-17.93064053 35.07506259 -20.94405895 38.20916967 -24.72265625 40.88671875 C-27.94602823 40.88671875 -29.20884365 40.34915009 -31.59765625 38.19921875 C-33.16532118 34.9767964 -32.64813493 33.32361003 -31.72265625 29.88671875 C-29.68359375 27.17578125 -29.68359375 27.17578125 -27.09765625 24.51171875 C-26.17637877 23.54624474 -25.25580818 22.58009571 -24.3359375 21.61328125 C-23.47355469 20.71351563 -22.61117187 19.81375 -21.72265625 18.88671875 C-20.56742083 17.56152332 -19.42037837 16.22909819 -18.28515625 14.88671875 C-17.10329059 13.5483886 -15.9150563 12.21567177 -14.72265625 10.88671875 C-13.42134766 9.41525391 -13.42134766 9.41525391 -12.09375 7.9140625 C-11.13862885 6.88234301 -10.18159738 5.85238869 -9.22265625 4.82421875 C-8.34609375 3.86386719 -7.46953125 2.90351563 -6.56640625 1.9140625 C-3.72265625 -0.11328125 -3.72265625 -0.11328125 0 0 Z " fill="#D19F0D" transform="translate(627.72265625,135.11328125)"/>
<path d="M0 0 C4.79234 0.67922929 8.87694331 2.52722069 13.25 4.5 C14.04140381 4.85674805 14.83280762 5.21349609 15.64819336 5.58105469 C35.41036139 14.60509088 59.5662682 26.3494023 72 45 C66.82637691 43.51025564 62.55746663 41.17635919 57.9375 38.5 C41.64922846 29.2988896 24.68577072 21.86237465 7.33276367 14.93408203 C5.53609253 14.20874268 5.53609253 14.20874268 3.703125 13.46875 C2.62708008 13.04013672 1.55103516 12.61152344 0.44238281 12.16992188 C-2 11 -2 11 -3 9 C-1.93458984 9.32484375 -1.93458984 9.32484375 -0.84765625 9.65625 C0.07144531 9.9346875 0.99054688 10.213125 1.9375 10.5 C2.85402344 10.7784375 3.77054687 11.056875 4.71484375 11.34375 C6.76393845 12.04600381 6.76393845 12.04600381 8 12 C8.4125 11.525625 8.825 11.05125 9.25 10.5625 C11 9 11 9 16 8 C10.72 5.69 5.44 3.38 0 1 C0 0.67 0 0.34 0 0 Z " fill="#DBAD0A" transform="translate(382,454)"/>
<path d="M0 0 C3.61371373 2.15285073 5.42516098 4.15191508 7 8 C7.62899069 12.38307196 8.01906476 16.97754839 5.984375 21.015625 C3.35801105 24.27484773 1.08257317 25.76210306 -3.0859375 26.23828125 C-7.08145177 26.36782864 -9.4023508 26.34333039 -12.9375 24.3125 C-16.0846262 20.78390396 -16.8858344 18.25582156 -17.3125 13.5625 C-16.86378531 8.44715248 -15.2755384 5.42560174 -11.875 1.625 C-7.87298758 -0.63700702 -4.49809895 -0.8163519 0 0 Z " fill="#04182D" transform="translate(461,312)"/>
<path d="M0 0 C3.36901707 1.70933287 5.47866363 4.09950991 7.375 7.375 C8.56279341 12.36373231 8.65183736 16.27094341 6.1875 20.8125 C4 24 4 24 1 26 C-2.7411579 26.67697143 -6.43405275 26.82922523 -9.8515625 25.01953125 C-13.49814014 22.10047279 -15.64947844 19.23595861 -16.37109375 14.6328125 C-16.489301 10.1687503 -16.54314445 6.99264353 -13.625 3.4375 C-9.35633002 -0.52626498 -5.678509 -0.84939042 0 0 Z " fill="#03172D" transform="translate(574,312)"/>
<path d="M0 0 C0.66 0.33 1.32 0.66 2 1 C1.32904297 1.52787109 1.32904297 1.52787109 0.64453125 2.06640625 C-2.66307416 4.7674998 -5.34644187 7.28293893 -7.6875 10.875 C-8.8321875 12.421875 -8.8321875 12.421875 -10 14 C-11.32 14 -12.64 14 -14 14 C-14 68.12 -14 122.24 -14 178 C-11.525 177.01 -11.525 177.01 -9 176 C-11.5958956 178.87402727 -13.21369298 180.24432948 -17 181 C-17.30409586 159.41633353 -17.53312613 137.83302173 -17.67355824 116.24764538 C-17.74050632 106.22434436 -17.83172387 96.20237663 -17.98071289 86.17993164 C-18.11055798 77.44110413 -18.1942189 68.70324234 -18.22315043 59.96347696 C-18.24005628 55.33801786 -18.27958377 50.71532058 -18.37449074 46.09074974 C-18.46324075 41.73055508 -18.48985737 37.3742377 -18.47039986 33.01322556 C-18.47395471 31.4195866 -18.49953352 29.82580806 -18.54967117 28.23295403 C-18.89903736 16.55342659 -18.89903736 16.55342659 -15.71776748 12.27592301 C-12.20661489 8.61275611 -8.21153098 5.80068426 -4 3 C-2.66100219 2.00759754 -1.32470321 1.01140456 0 0 Z " fill="#DDA60D" transform="translate(537,538)"/>
<path d="M0 0 C30.36 0 60.72 0 92 0 C89 9 89 9 87 10 C87.66 7.69 88.32 5.38 89 3 C60.95 3 32.9 3 4 3 C3.67 3.66 3.34 4.32 3 5 C1.5 3.625 1.5 3.625 0 2 C0 1.34 0 0.68 0 0 Z " fill="#E0AD0A" transform="translate(467,475)"/>
<path d="M0 0 C9.87090917 1.23386365 18.95148506 6.07304619 28 10 C24.99112219 11.58158962 22.36327963 12.43945339 19 13 C19.99 13.99 20.98 14.98 22 16 C18.6998744 15.38086139 15.52129941 14.61150693 12.3125 13.625 C11.45527344 13.36332031 10.59804688 13.10164063 9.71484375 12.83203125 C8.81894531 12.55746094 7.92304688 12.28289062 7 12 C5.12535136 11.43633014 3.25036567 10.87377965 1.375 10.3125 C-0.08333333 9.875 -1.54166667 9.4375 -3 9 C-3 8.01 -3 7.02 -3 6 C-2.34 5.67 -1.68 5.34 -1 5 C-0.34444881 2.47266765 -0.34444881 2.47266765 0 0 Z " fill="#CB950F" transform="translate(372,452)"/>
<path d="M0 0 C0.66 0.33 1.32 0.66 2 1 C1.01 2.98 0.02 4.96 -1 7 C-0.34 7.33 0.32 7.66 1 8 C1.495 8.99 1.495 8.99 2 10 C1.35039307 10.33209473 0.70078613 10.66418945 0.03149414 11.00634766 C-2.96108735 12.54028177 -5.94928508 14.0825779 -8.9375 15.625 C-9.95908203 16.14707031 -10.98066406 16.66914063 -12.03320312 17.20703125 C-18.30039018 20.45075107 -24.23001684 23.9344737 -30 28 C-30.66 27.67 -31.32 27.34 -32 27 C-12.2247191 6.11235955 -12.2247191 6.11235955 0 0 Z " fill="#D5A40C" transform="translate(600,474)"/>
<path d="M0 0 C0.66 0.33 1.32 0.66 2 1 C1.32904297 1.52787109 1.32904297 1.52787109 0.64453125 2.06640625 C-2.6407968 4.74930741 -5.31235548 7.23639794 -7.625 10.8125 C-10 14 -10 14 -15 15 C-15.33 62.52 -15.66 110.04 -16 159 C-16.33 159 -16.66 159 -17 159 C-17.30423853 140.28481196 -17.53319354 121.57012838 -17.67355824 102.8529768 C-17.74047751 94.16131414 -17.83163538 85.47119142 -17.98071289 76.78051758 C-18.11065173 69.20191823 -18.19423992 61.62443431 -18.22315043 54.04475194 C-18.240042 50.03390888 -18.27946411 46.02625539 -18.37449074 42.01643944 C-18.97566138 15.65183006 -18.97566138 15.65183006 -14.16000366 9.63638306 C-11.09011075 6.68065914 -7.81853519 4.85117021 -4 3 C-2.64404367 2.03089721 -1.29897815 1.04423826 0 0 Z " fill="#F7C405" transform="translate(537,538)"/>
<path d="M0 0 C9.3591959 4.50830959 19.72069785 13.79451869 25.66796875 22.28515625 C20.31656972 20.7561851 15.83489362 18.28398876 11.04296875 15.53515625 C4.01429513 11.5613021 -3.05750188 7.79404689 -10.33203125 4.28515625 C-6.8538001 3.12574587 -4.87307547 3.57694741 -1.33203125 4.28515625 C-1.00203125 3.62515625 -0.67203125 2.96515625 -0.33203125 2.28515625 C-0.99203125 2.28515625 -1.65203125 2.28515625 -2.33203125 2.28515625 C-2.66203125 2.94515625 -2.99203125 3.60515625 -3.33203125 4.28515625 C-3.66203125 2.96515625 -3.99203125 1.64515625 -4.33203125 0.28515625 C-2.33203125 -0.71484375 -2.33203125 -0.71484375 0 0 Z " fill="#DFB509" transform="translate(428.33203125,476.71484375)"/>
<path d="M0 0 C0.825 0.639375 1.65 1.27875 2.5 1.9375 C7.0135777 4.97156767 11.6430088 5 17 5 C17 6.65 17 8.3 17 10 C17.66 10.33 18.32 10.66 19 11 C18.67 11.66 18.34 12.32 18 13 C14.98046875 13.58984375 14.98046875 13.58984375 11.1875 13.9375 C9.94355469 14.07027344 8.69960938 14.20304687 7.41796875 14.33984375 C4 14 4 14 1.53125 11.69921875 C-0.40718052 8.28224045 0.10633041 6.73716374 1 3 C0.67 2.01 0.34 1.02 0 0 Z " fill="#C7910F" transform="translate(559,334)"/>
<path d="M0 0 C4.6182583 0.54792895 7.98149647 2.58964488 11.8125 5.0625 C12.40998047 5.43955078 13.00746094 5.81660156 13.62304688 6.20507812 C15.08636577 7.12989566 16.54379523 8.06402065 18 9 C17.01 9.495 17.01 9.495 16 10 C16.33 10.33 16.66 10.66 17 11 C17.66 11 18.32 11 19 11 C18.67 11.99 18.34 12.98 18 14 C12.79714932 13.42460686 8.76043964 11.70581107 4.125 9.4375 C3.43664062 9.10814453 2.74828125 8.77878906 2.0390625 8.43945312 C0.3561267 7.63304639 -1.32240293 6.81745506 -3 6 C-2.01 5.67 -1.02 5.34 0 5 C0 3.35 0 1.7 0 0 Z " fill="#C8910F" transform="translate(409,468)"/>
<path d="M0 0 C4.18129125 0.09389298 8.36204036 0.20006401 12.54272461 0.31738281 C13.9635373 0.35555149 15.38444263 0.39042513 16.80541992 0.421875 C18.85368855 0.46779065 20.90132608 0.52573805 22.94921875 0.5859375 C24.17987061 0.6173584 25.41052246 0.6487793 26.6784668 0.68115234 C29.85364055 0.98595035 32.13426057 1.64442201 35 3 C36.09176092 8.75655757 36.42149359 11.92675089 33 17 C30.08017319 19.63122101 28.1423847 20.38646203 24.234375 20.51171875 C23.34492188 20.54716797 22.45546875 20.58261719 21.5390625 20.61914062 C20.15847656 20.65297852 20.15847656 20.65297852 18.75 20.6875 C17.34621094 20.73874023 17.34621094 20.73874023 15.9140625 20.79101562 C13.60949467 20.87332162 11.30529881 20.9425263 9 21 C9.33 22.65 9.66 24.3 10 26 C14.05308333 27.10789535 18.07111374 27.33731267 22.25 27.5625 C22.99507813 27.60568359 23.74015625 27.64886719 24.5078125 27.69335938 C26.338349 27.79896725 28.16915176 27.89994201 30 28 C30 28.33 30 28.66 30 29 C26.72933434 29.08706892 23.45896635 29.14041241 20.1875 29.1875 C19.25873047 29.21263672 18.32996094 29.23777344 17.37304688 29.26367188 C16.48037109 29.27333984 15.58769531 29.28300781 14.66796875 29.29296875 C13.84578857 29.3086792 13.0236084 29.32438965 12.17651367 29.34057617 C9.48099241 28.91878681 8.62007469 28.15956438 7 26 C6.625 23.4375 6.625 23.4375 7 21 C10.04733907 18.96844062 10.63651608 18.75976996 14.0546875 18.76171875 C14.83457031 18.74560547 15.61445313 18.72949219 16.41796875 18.71289062 C18.04809837 18.69604509 19.67839022 18.69072388 21.30859375 18.69726562 C25.63489751 18.58679164 27.48799173 18.39076049 31.03515625 15.68359375 C33.27618434 13.05447051 33.27618434 13.05447051 33.5625 9.375 C33.33288761 6.02494388 33.33288761 6.02494388 31.37207031 4.32104492 C28.28885545 2.60395192 26.00544576 2.56830559 22.484375 2.48828125 C21.23398437 2.45283203 19.98359375 2.41738281 18.6953125 2.38085938 C17.39335937 2.35830078 16.09140625 2.33574219 14.75 2.3125 C13.43257813 2.27833984 12.11515625 2.24417969 10.7578125 2.20898438 C7.50529322 2.12649294 4.25304404 2.0573433 1 2 C0.67 1.34 0.34 0.68 0 0 Z " fill="#040535" transform="translate(322,558)"/>
<path d="M0 0 C1.546875 1.1446875 1.546875 1.1446875 3.125 2.3125 C5.38461997 3.94394562 7.29983902 5.13036479 9.875 6.25 C14.71188816 8.95865737 18.21850333 12.99161353 22 17 C21.34 17.33 20.68 17.66 20 18 C17.71741367 16.92325298 15.5643566 15.80453884 13.375 14.5625 C12.76398438 14.22412109 12.15296875 13.88574219 11.5234375 13.53710938 C10.011647 12.69853808 8.50529601 11.85017423 7 11 C7 10.34 7 9.68 7 9 C4.36 7.68 1.72 6.36 -1 5 C-0.67 3.35 -0.34 1.7 0 0 Z " fill="#C58E10" transform="translate(432,481)"/>
<path d="M0 0 C1.49782995 4.49348985 -0.07868686 7.79105332 -2 12 C-4.1875 14.5625 -4.1875 14.5625 -7 17 C-8.29436409 18.3515886 -9.58580622 19.70597888 -10.875 21.0625 C-14.35422197 24.53514499 -17.51218649 26.9760841 -22 29 C-22.99 28.67 -23.98 28.34 -25 28 C-24.05640625 27.48953125 -24.05640625 27.48953125 -23.09375 26.96875 C-12.7876902 21.13278843 -6.75620338 14.83971934 -2 4 C-1.34061919 2.66304856 -0.67639873 1.32842274 0 0 Z " fill="#E1BB08" transform="translate(615,329)"/>
<path d="M0 0 C0.66 0.33 1.32 0.66 2 1 C1.01 2.485 1.01 2.485 0 4 C0.9075 3.690625 1.815 3.38125 2.75 3.0625 C5.16563338 2.2727737 7.52780285 1.57050703 10 1 C7.88971825 3.28637746 5.88508296 4.75954449 3.12890625 6.19140625 C2.01999023 6.77245117 2.01999023 6.77245117 0.88867188 7.36523438 C0.12103516 7.76033203 -0.64660156 8.15542969 -1.4375 8.5625 C-2.20126953 8.96146484 -2.96503906 9.36042969 -3.75195312 9.77148438 C-7.15325176 11.54465921 -10.56640566 13.29014955 -14 15 C-9.59156563 9.70987876 -4.92440206 4.81191572 0 0 Z " fill="#E0B908" transform="translate(582,487)"/>
<path d="M0 0 C0.33 0 0.66 0 1 0 C1.33 10.56 1.66 21.12 2 32 C3.65 31.34 5.3 30.68 7 30 C4.4041044 32.87402727 2.78630702 34.24432948 -1 35 C-1.20638953 11.41761516 -1.20638953 11.41761516 0 0 Z " fill="#E4B508" transform="translate(521,684)"/>
<path d="M0 0 C1.125 5.75 1.125 5.75 0 8 C-0.66 8 -1.32 8 -2 8 C-2 8.66 -2 9.32 -2 10 C-3.65 10 -5.3 10 -7 10 C-6.67506385 6.4257023 -6.36129314 4.44287547 -4.0625 1.625 C-2 0 -2 0 0 0 Z " fill="#CB950E" transform="translate(606,473)"/>
<path d="M0 0 C0.66 0.33 1.32 0.66 2 1 C1.45730469 1.60328125 0.91460937 2.2065625 0.35546875 2.828125 C-0.35996094 3.62734375 -1.07539063 4.4265625 -1.8125 5.25 C-2.52019531 6.03890625 -3.22789062 6.8278125 -3.95703125 7.640625 C-5.99094759 9.91543556 -5.99094759 9.91543556 -7.5625 12.1875 C-9.59065605 14.74474024 -12.058851 15.69282267 -15 17 C-11.69276967 9.88867845 -6.01650648 4.859486 0 0 Z " fill="#DCB409" transform="translate(434,205)"/>
<path d="M0 0 C0.66 0.33 1.32 0.66 2 1 C1.55269531 1.35191406 1.10539063 1.70382812 0.64453125 2.06640625 C-2.66050403 4.76540094 -5.37556344 7.30971453 -7.75 10.875 C-8.4925 11.90625 -9.235 12.9375 -10 14 C-10.99 14 -11.98 14 -13 14 C-12.75722624 10.64815577 -11.78030433 9.79196679 -9.27734375 7.421875 C-8.17185454 6.52159636 -7.05823943 5.6312214 -5.9375 4.75 C-5.36966797 4.29109375 -4.80183594 3.8321875 -4.21679688 3.359375 C-2.8180802 2.23099852 -1.40992986 1.1143337 0 0 Z " fill="#DEB609" transform="translate(537,538)"/>
<path d="M0 0 C5.26964527 2.63482263 8.97903554 6.79943911 13 11 C12.01 11.495 12.01 11.495 11 12 C8.6171875 10.78515625 8.6171875 10.78515625 5.875 9.0625 C4.96492188 8.49660156 4.05484375 7.93070312 3.1171875 7.34765625 C2.41851562 6.90292969 1.71984375 6.45820313 1 6 C1.99 5.67 2.98 5.34 4 5 C3.01 4.319375 3.01 4.319375 2 3.625 C1.34 3.08875 0.68 2.5525 0 2 C0 1.34 0 0.68 0 0 Z " fill="#E8C706" transform="translate(441,487)"/>
<path d="M0 0 C0.66 1.32 1.32 2.64 2 4 C1.278125 3.7525 0.55625 3.505 -0.1875 3.25 C-3.14798094 2.6890342 -3.14798094 2.6890342 -5.6875 4.8125 C-7.14311448 6.18943262 -8.58318016 7.58318016 -10 9 C-10.33 8.01 -10.66 7.02 -11 6 C-7.62034755 1.10533094 -5.86571081 -0.15436081 0 0 Z " fill="#0D1331" transform="translate(558,368)"/>
<path d="M0 0 C0.33 1.32 0.66 2.64 1 4 C-4.17578125 7.22265625 -4.17578125 7.22265625 -6 8 C-6.99 7.67 -7.98 7.34 -9 7 C-6.77515647 3.48708916 -4.90265724 2.33511958 -1 1 C-0.67 0.67 -0.34 0.34 0 0 Z " fill="#C7900F" transform="translate(590,484)"/>
<path d="M0 0 C0.33 0.66 0.66 1.32 1 2 C-1.2830908 7.02279976 -4.44361459 10.87562143 -9 14 C-7.65070536 10.16336928 -5.92248975 7.34827431 -3.375 4.1875 C-2.42753906 3.00220703 -2.42753906 3.00220703 -1.4609375 1.79296875 C-0.97882813 1.20128906 -0.49671875 0.60960937 0 0 Z " fill="#C28B0B" transform="translate(450,235)"/>
<path d="M0 0 C6.40353322 -0.2361959 11.84629161 0.176679 18 2 C15.08500057 2.79560764 12.25438581 3.25322499 9.25 3.5625 C8.05117188 3.68818359 8.05117188 3.68818359 6.828125 3.81640625 C5.92320312 3.90728516 5.92320312 3.90728516 5 4 C5 3.01 5 2.02 5 1 C3.35 1 1.7 1 0 1 C0 0.67 0 0.34 0 0 Z " fill="#E7BC07" transform="translate(525,179)"/>
<path d="M0 0 C6.03280791 1.6166348 9.950809 3.16709462 14 8 C10.13375035 8 8.53339391 6.65502846 5.3125 4.5625 C4.31863281 3.92441406 3.32476562 3.28632812 2.30078125 2.62890625 C1.54152344 2.09136719 0.78226562 1.55382812 0 1 C0 0.67 0 0.34 0 0 Z " fill="#E3BC07" transform="translate(478,701)"/>
<path d="M0 0 C1.99954746 -0.04254356 4.00041636 -0.04080783 6 0 C7 1 7 1 7.0625 4.0625 C7.041875 5.031875 7.02125 6.00125 7 7 C5.35 7.33 3.7 7.66 2 8 C2.33 6.68 2.66 5.36 3 4 C3.99 4 4.98 4 6 4 C5.67 3.34 5.34 2.68 5 2 C2.47266765 1.34444881 2.47266765 1.34444881 0 1 C0 0.67 0 0.34 0 0 Z " fill="#C38B11" transform="translate(675,444)"/>
<path d="M0 0 C0.99 0.33 1.98 0.66 3 1 C0.09046192 3.42461506 -2.62951977 5.31475989 -6 7 C-7.68889872 8.3050581 -9.3603279 9.63360658 -11 11 C-9.63310446 7.84930578 -8.14342115 5.99108226 -5.5 3.8125 C-4.8915625 3.30332031 -4.283125 2.79414063 -3.65625 2.26953125 C-2 1 -2 1 0 0 Z " fill="#E5C106" transform="translate(558,288)"/>
<path d="M0 0 C0 0.66 0 1.32 0 2 C-0.639375 2.12375 -1.27875 2.2475 -1.9375 2.375 C-2.618125 2.58125 -3.29875 2.7875 -4 3 C-4.33 3.66 -4.66 4.32 -5 5 C-7.50390625 5.4140625 -7.50390625 5.4140625 -10.5625 5.625 C-11.57441406 5.69976563 -12.58632813 5.77453125 -13.62890625 5.8515625 C-14.41136719 5.90054688 -15.19382812 5.94953125 -16 6 C-13.50063756 3.50063756 -11.35191992 2.96276247 -8 1.875 C-6.9275 1.52179687 -5.855 1.16859375 -4.75 0.8046875 C-2 0 -2 0 0 0 Z " fill="#080D30" transform="translate(634,664)"/>
<path d="M0 0 C0.66 0.33 1.32 0.66 2 1 C-0.27941234 4.41911851 -0.40474917 4.10118729 -4 5 C-4.99 6.485 -4.99 6.485 -6 8 C-7.32 7.67 -8.64 7.34 -10 7 C-6.7 4.69 -3.4 2.38 0 0 Z " fill="#DDB808" transform="translate(556,525)"/>
<path d="M0 0 C0.66 0.99 1.32 1.98 2 3 C1.38125 3.45375 0.7625 3.9075 0.125 4.375 C-2.05919833 5.97108919 -2.05919833 5.97108919 -4 8 C-4.33 6.35 -4.66 4.7 -5 3 C-3.35 2.01 -1.7 1.02 0 0 Z " fill="#C9940F" transform="translate(349,442)"/>
<path d="M0 0 C1.32 0.66 2.64 1.32 4 2 C-0.455 4.97 -0.455 4.97 -5 8 C-5.66 7.67 -6.32 7.34 -7 7 C-4.69 4.69 -2.38 2.38 0 0 Z " fill="#E6CF05" transform="translate(575,494)"/>
<path d="M0 0 C1.66905241 3.33810482 2.8741386 6.46157845 4 10 C2.68 10.33 1.36 10.66 0 11 C0 7.37 0 3.74 0 0 Z " fill="#E0B008" transform="translate(503,450)"/>
<path d="M0 0 C0.66 0.33 1.32 0.66 2 1 C0.35 2.98 -1.3 4.96 -3 7 C-4.32 6.67 -5.64 6.34 -7 6 C-4.69 4.02 -2.38 2.04 0 0 Z " fill="#E2B708" transform="translate(591,480)"/>
<path d="M0 0 C0.33 0.99 0.66 1.98 1 3 C-2.4019487 5.09350689 -5.05272412 5.17942163 -9 5 C-6.3534665 2.3534665 -3.43778736 1.40058003 0 0 Z " fill="#11162F" transform="translate(622,474)"/>
<path d="M0 0 C0.99 0.33 1.98 0.66 3 1 C1.6062718 5.43458973 -0.60582235 7.87378374 -4 11 C-3.71125 10.29875 -3.4225 9.5975 -3.125 8.875 C-1.97866412 5.94547497 -0.97374346 2.99078347 0 0 Z " fill="#DFBD08" transform="translate(595,386)"/>
<path d="M0 0 C-2.31 1.65 -4.62 3.3 -7 5 C-7.66 4.67 -8.32 4.34 -9 4 C-8.67 3.01 -8.34 2.02 -8 1 C-2.59770115 -1.29885057 -2.59770115 -1.29885057 0 0 Z " fill="#0A1031" transform="translate(601,351)"/>
<path d="M0 0 C-5.17578125 3.22265625 -5.17578125 3.22265625 -7 4 C-7.99 3.67 -8.98 3.34 -10 3 C-9.34 3 -8.68 3 -8 3 C-8 2.34 -8 1.68 -8 1 C-4.93251126 -0.86240388 -3.40254489 -1.2151946 0 0 Z " fill="#E2B908" transform="translate(590,343)"/>
<path d="M0 0 C0.33 1.32 0.66 2.64 1 4 C2.32 3.67 3.64 3.34 5 3 C5 3.99 5 4.98 5 6 C5.66 6.33 6.32 6.66 7 7 C4.625 7.125 4.625 7.125 2 7 C0 5 0 5 -0.125 2.375 C-0.08375 1.59125 -0.0425 0.8075 0 0 Z " fill="#BF8812" transform="translate(597,167)"/>
<path d="M0 0 C0.33 0.66 0.66 1.32 1 2 C0.34 2 -0.32 2 -1 2 C-0.67 3.98 -0.34 5.96 0 8 C-0.99 8.495 -0.99 8.495 -2 9 C-2.33 6.69 -2.66 4.38 -3 2 C-2.01 1.34 -1.02 0.68 0 0 Z " fill="#111334" transform="translate(332,577)"/>
<path d="M0 0 C0.33 0 0.66 0 1 0 C1.33 3.3 1.66 6.6 2 10 C1.01 10.33 0.02 10.66 -1 11 C-0.67 7.37 -0.34 3.74 0 0 Z " fill="#BE8E10" transform="translate(524,434)"/>
<path d="M0 0 C-0.33 1.98 -0.66 3.96 -1 6 C-1.33 4.68 -1.66 3.36 -2 2 C-4.64 2.33 -7.28 2.66 -10 3 C-6.41600853 0.61067235 -4.26804999 0 0 0 Z " fill="#BF8910" transform="translate(634,314)"/>
<path d="M0 0 C0.66 0.33 1.32 0.66 2 1 C0.25 3.0625 0.25 3.0625 -2 5 C-4.25 4.75 -4.25 4.75 -6 4 C-4.02 2.68 -2.04 1.36 0 0 Z " fill="#E9C796" transform="translate(462,205)"/>
<path d="M0 0 C0.99 0 1.98 0 3 0 C3 0.66 3 1.32 3 2 C3.66 2.33 4.32 2.66 5 3 C4.34 3 3.68 3 3 3 C2.67 4.32 2.34 5.64 2 7 C1.01 5.02 0.02 3.04 -1 1 C-0.67 0.67 -0.34 0.34 0 0 Z " fill="#D4AC0B" transform="translate(469,478)"/>
<path d="M0 0 C0.33 0.66 0.66 1.32 1 2 C0.06553465 4.03144641 -0.93224776 6.03533587 -2 8 C-3.32 7.34 -4.64 6.68 -6 6 C-5.38125 5.938125 -4.7625 5.87625 -4.125 5.8125 C-1.72238859 5.171081 -1.72238859 5.171081 -0.75 2.4375 C-0.5025 1.633125 -0.255 0.82875 0 0 Z " fill="#E3C008" transform="translate(532,295)"/>
<path d="M0 0 C2.64 0.33 5.28 0.66 8 1 C5.03312999 2.64826111 2.34373475 3.44271087 -1 4 C-0.67 2.68 -0.34 1.36 0 0 Z " fill="#0D1432" transform="translate(473,180)"/>
</svg>
